<?xml version="1.0" encoding="UTF-8" standalone="no"?>
<svg
   width="256"
   height="48"
   viewBox="0 0 67.73333 12.699999"
   version="1.1"
   id="svg8"
   xmlns="http://www.w3.org/2000/svg"
   xmlns:svg="http://www.w3.org/2000/svg"
   xmlns:rdf="http://www.w3.org/1999/02/22-rdf-syntax-ns#"
   xmlns:cc="http://creativecommons.org/ns#"
   xmlns:dc="http://purl.org/dc/elements/1.1/">
  <defs
     id="defs2" />
  <metadata
     id="metadata5">
    <rdf:RDF>
      <cc:Work
         rdf:about="">
        <dc:format>image/svg+xml</dc:format>
        <dc:type
           rdf:resource="http://purl.org/dc/dcmitype/StillImage" />
      </cc:Work>
    </rdf:RDF>
  </metadata>
  <g
     id="layer1"
     style="opacity:1">
    <g
       transform="matrix(0.26458333,0,0,0.26458333,-988.19679,-458.81655)"
       id="g1176" />
    <g
       transform="matrix(0.26458333,0,0,0.26458333,-988.19679,-458.81655)"
       id="g1178" />
    <g
       transform="matrix(0.26458333,0,0,0.26458333,-988.19679,-458.81655)"
       id="g1180" />
    <g
       transform="matrix(0.26458333,0,0,0.26458333,-988.19679,-458.81655)"
       id="g1182" />
    <g
       transform="matrix(0.26458333,0,0,0.26458333,-988.19679,-458.81655)"
       id="g1184" />
    <g
       transform="matrix(0.26458333,0,0,0.26458333,-988.19679,-458.81655)"
       id="g1186" />
    <g
       id="g4635"
       transform="matrix(0.125,0,0,0.125,0.31508212,-2.1166663)"
       style="stroke-width:8">
      <g
         id="g143453"
         transform="matrix(1.2676338,0.15558193,-0.15558193,1.2676338,-134.45912,-424.96219)"
         style="stroke-width:6.26397">
        <g
           id="g142784"
           style="stroke-width:6.26397">
          <path
             style="fill:#fe453c;fill-opacity:1;stroke:none;stroke-width:1.65734px;stroke-linecap:butt;stroke-linejoin:miter;stroke-opacity:1"
             d="m 161.55476,364.99408 81.61508,-31.59292 -39.01249,54.5696 -12.20636,-4.78679 -12.20636,8.85558 -1.1967,-16.75381 z"
             id="path137843" />
          <path
             style="fill:#aa0000;fill-opacity:1;stroke:none;stroke-width:1.65734px;stroke-linecap:butt;stroke-linejoin:miter;stroke-opacity:1"
             d="m 178.54793,375.28574 64.62191,-41.88458 -58.15972,45.47468 -5.26549,13.16371 v 0"
             id="path137845" />
        </g>
      </g>
      <g
         aria-label="quicksend"
         id="text359"
         style="font-size:84.6667px;line-height:0.9;font-family:'Open Sans';-inkscape-font-specification:'Open Sans';text-align:center;letter-spacing:0px;word-spacing:0px;text-anchor:middle;fill:#fe453c;stroke-width:2.11666">
        <path
           d="m 153.19258,84.807231 q 6.86264,0 10.00456,-3.679363 3.14193,-3.679364 3.34864,-12.402349 v -1.529623 q 0,-9.508468 -3.22461,-13.683925 -3.22461,-4.175458 -10.21127,-4.175458 -6.03581,0 -9.26042,4.712893 -3.18327,4.671551 -3.18327,13.229172 0,8.557621 3.14193,13.063807 3.18327,4.464846 9.38444,4.464846 z m -1.03353,5.746422 q -8.76432,0 -13.68392,-6.159834 -4.9196,-6.159833 -4.9196,-17.197923 0,-11.120773 4.96094,-17.363289 4.96094,-6.242516 13.80795,-6.242516 9.30176,0 14.30404,7.027998 h 0.37207 l 0.99219,-6.201174 h 5.41569 v 65.649765 h -6.86263 V 90.677676 q 0,-4.134116 0.45475,-7.027997 h -0.53743 q -4.75424,6.903974 -14.30405,6.903974 z"
           id="path301" />
        <path
           d="m 194.40972,44.416915 v 29.393567 q 0,5.539716 2.52181,8.268232 2.52181,2.728517 7.89617,2.728517 7.11068,0 10.37663,-3.886069 3.30729,-3.88607 3.30729,-12.691737 v -23.81251 h 6.86263 V 89.72683 h -5.66374 l -0.99218,-6.077151 h -0.37207 q -2.1084,3.348634 -5.87045,5.126304 -3.7207,1.77767 -8.51628,1.77767 -8.26823,0 -12.40235,-3.927411 -4.09277,-3.92741 -4.09277,-12.567713 V 44.416915 Z"
           id="path303" />
        <path
           d="m 246.78897,89.72683 h -6.86263 V 44.416915 h 6.86263 z m -7.44141,-57.588241 q 0,-2.356446 1.15756,-3.431316 1.15755,-1.116212 2.89388,-1.116212 1.65364,0 2.85254,1.116212 1.19889,1.116211 1.19889,3.431316 0,2.315105 -1.19889,3.472658 -1.1989,1.116211 -2.85254,1.116211 -1.73633,0 -2.89388,-1.116211 -1.15756,-1.157553 -1.15756,-3.472658 z"
           id="path305" />
        <path
           d="m 279.4485,90.553653 q -9.8392,0 -15.25489,-6.03581 -5.37435,-6.077151 -5.37435,-17.156583 0,-11.36882 5.45703,-17.569994 5.49837,-6.201175 15.62696,-6.201175 3.26595,0 6.5319,0.7028 3.26595,0.7028 5.12631,1.653647 l -2.1084,5.829104 q -2.27377,-0.909506 -4.96094,-1.488282 -2.68718,-0.620118 -4.75424,-0.620118 -13.80794,0 -13.80794,17.611336 0,8.350915 3.34863,12.81576 3.38998,4.464846 10.00456,4.464846 5.66374,0 11.61687,-2.439129 v 6.077151 q -4.54753,2.356447 -11.4515,2.356447 z"
           id="path307" />
        <path
           d="m 308.42864,66.534437 q 1.77767,-2.521811 5.41569,-6.614586 l 14.63478,-15.502936 h 8.14421 l -18.35548,19.306323 19.63705,26.003592 h -8.30957 l -15.99903,-21.414723 -5.16765,4.464846 V 89.72683 h -6.77995 V 25.39998 h 6.77995 v 34.106459 q 0,2.273764 -0.33073,7.027998 z"
           id="path309" />
        <path
           d="m 375.31865,77.365822 q 0,6.325198 -4.71289,9.756514 -4.71289,3.431317 -13.22917,3.431317 -9.01238,0 -14.056,-2.85254 v -6.36654 q 3.26595,1.653647 6.98666,2.604494 3.76204,0.950846 7.2347,0.950846 5.37435,0 8.26823,-1.694987 2.89389,-1.736329 2.89389,-5.250328 0,-2.645834 -2.31511,-4.506187 -2.27376,-1.901693 -8.92969,-4.464845 -6.3252,-2.356447 -9.01237,-4.092776 -2.64584,-1.77767 -3.96876,-4.010092 -1.28157,-2.232423 -1.28157,-5.33301 0,-5.539716 4.50618,-8.722986 4.50619,-3.224611 12.36101,-3.224611 7.31739,0 14.30404,2.976564 l -2.43912,5.581057 q -6.8213,-2.811199 -12.36101,-2.811199 -4.87826,0 -7.35873,1.529623 -2.48047,1.529623 -2.48047,4.216799 0,1.819011 0.90951,3.100587 0.95084,1.281576 3.0179,2.439129 2.06706,1.157552 7.93751,3.348634 8.06152,2.935222 10.87272,5.911786 2.85254,2.976564 2.85254,7.482751 z"
           id="path311" />
        <path
           d="m 405.62173,90.553653 q -10.04591,0 -15.87501,-6.118492 -5.78776,-6.118493 -5.78776,-16.991218 0,-10.955409 5.37435,-17.40463 5.41569,-6.449222 14.51075,-6.449222 8.51628,0 13.47722,5.622399 4.96094,5.581057 4.96094,14.758795 v 4.340822 h -31.21258 q 0.2067,7.978844 4.01009,12.112961 3.84473,4.134116 10.79004,4.134116 7.31739,0 14.46941,-3.059246 v 6.118492 q -3.63802,1.570964 -6.90397,2.232423 -3.22461,0.7028 -7.81348,0.7028 z m -1.86035,-41.21714 q -5.45704,0 -8.72299,3.55534 -3.22461,3.55534 -3.80339,9.839197 h 23.68849 q 0,-6.490563 -2.89388,-9.921879 -2.89388,-3.472658 -8.26823,-3.472658 z"
           id="path313" />
        <path
           d="M 464.98763,89.72683 V 60.415945 q 0,-5.539716 -2.52181,-8.268233 -2.52181,-2.728517 -7.89616,-2.728517 -7.11068,0 -10.41797,3.844729 -3.3073,3.844728 -3.3073,12.691737 V 89.72683 h -6.86263 V 44.416915 h 5.58106 l 1.11621,6.201174 h 0.33073 q 2.1084,-3.348634 5.91178,-5.167645 3.80339,-1.860353 8.47494,-1.860353 8.18555,0 12.31967,3.968752 4.13412,3.927411 4.13412,12.609055 V 89.72683 Z"
           id="path315" />
        <path
           d="m 516.78812,83.649679 h -0.37207 q -4.75424,6.903974 -14.22136,6.903974 -8.88835,0 -13.84929,-6.077151 -4.9196,-6.077151 -4.9196,-17.280606 0,-11.203456 4.96094,-17.40463 4.96094,-6.201175 13.80795,-6.201175 9.21908,0 14.13868,6.697269 h 0.53743 l -0.28939,-3.265952 -0.16536,-3.18327 V 25.39998 h 6.86263 v 64.32685 h -5.58106 z m -13.72527,1.157552 q 7.028,0 10.16993,-3.803387 3.18327,-3.844728 3.18327,-12.361008 v -1.44694 q 0,-9.632491 -3.22461,-13.725267 -3.18327,-4.134116 -10.21127,-4.134116 -6.03581,0 -9.26042,4.712893 -3.18327,4.671551 -3.18327,13.229172 0,8.681644 3.18327,13.105149 3.18327,4.423504 9.3431,4.423504 z"
           id="path317" />
      </g>
    </g>
  </g>
</svg>
